<mxfile host="app.diagrams.net" modified="2023-02-19T12:24:21.370Z" agent="5.0 (Windows NT 10.0; Win64; x64) AppleWebKit/537.36 (KHTML, like Gecko) Chrome/110.0.0.0 Safari/537.36 Edg/110.0.1587.49" etag="YzVuS2rsETOuq0JW-glD" version="20.8.20" type="github" pages="7">
  <diagram name="Flow" id="JGWFm--xhnfJ3izavDUy">
    <mxGraphModel dx="1050" dy="581" grid="1" gridSize="10" guides="1" tooltips="1" connect="1" arrows="1" fold="1" page="1" pageScale="1" pageWidth="4681" pageHeight="3300" math="0" shadow="0">
      <root>
        <mxCell id="0" />
        <mxCell id="1" parent="0" />
        <mxCell id="QZ5ynfMlYQsXyKUYGWSf-6" value="PC" style="rounded=0;whiteSpace=wrap;html=1;" parent="1" vertex="1">
          <mxGeometry x="400" y="90" width="360" height="290" as="geometry" />
        </mxCell>
        <mxCell id="QZ5ynfMlYQsXyKUYGWSf-4" value="POST" style="edgeStyle=orthogonalEdgeStyle;rounded=0;orthogonalLoop=1;jettySize=auto;html=1;entryX=0;entryY=0.5;entryDx=0;entryDy=0;" parent="1" source="QZ5ynfMlYQsXyKUYGWSf-1" target="QZ5ynfMlYQsXyKUYGWSf-2" edge="1">
          <mxGeometry relative="1" as="geometry" />
        </mxCell>
        <mxCell id="QZ5ynfMlYQsXyKUYGWSf-1" value="ESP" style="rounded=0;whiteSpace=wrap;html=1;" parent="1" vertex="1">
          <mxGeometry x="140" y="130" width="120" height="60" as="geometry" />
        </mxCell>
        <mxCell id="QZ5ynfMlYQsXyKUYGWSf-2" value="Server" style="rounded=0;whiteSpace=wrap;html=1;" parent="1" vertex="1">
          <mxGeometry x="450" y="130" width="120" height="60" as="geometry" />
        </mxCell>
        <mxCell id="QZ5ynfMlYQsXyKUYGWSf-5" value="GET" style="edgeStyle=orthogonalEdgeStyle;rounded=0;orthogonalLoop=1;jettySize=auto;html=1;entryX=0.5;entryY=1;entryDx=0;entryDy=0;" parent="1" source="QZ5ynfMlYQsXyKUYGWSf-3" target="QZ5ynfMlYQsXyKUYGWSf-2" edge="1">
          <mxGeometry relative="1" as="geometry">
            <mxPoint as="offset" />
          </mxGeometry>
        </mxCell>
        <mxCell id="QZ5ynfMlYQsXyKUYGWSf-3" value="App" style="rounded=0;whiteSpace=wrap;html=1;" parent="1" vertex="1">
          <mxGeometry x="450" y="290" width="120" height="60" as="geometry" />
        </mxCell>
        <mxCell id="QZ5ynfMlYQsXyKUYGWSf-12" value="POST" style="edgeStyle=orthogonalEdgeStyle;rounded=0;orthogonalLoop=1;jettySize=auto;html=1;entryX=0.127;entryY=-0.003;entryDx=0;entryDy=0;entryPerimeter=0;" parent="1" source="QZ5ynfMlYQsXyKUYGWSf-10" target="QZ5ynfMlYQsXyKUYGWSf-2" edge="1">
          <mxGeometry relative="1" as="geometry" />
        </mxCell>
        <mxCell id="QZ5ynfMlYQsXyKUYGWSf-10" value="ESP" style="rounded=0;whiteSpace=wrap;html=1;" parent="1" vertex="1">
          <mxGeometry x="140" y="40" width="120" height="60" as="geometry" />
        </mxCell>
        <mxCell id="QZ5ynfMlYQsXyKUYGWSf-13" value="POST" style="edgeStyle=orthogonalEdgeStyle;rounded=0;orthogonalLoop=1;jettySize=auto;html=1;exitX=1;exitY=0.5;exitDx=0;exitDy=0;entryX=0.113;entryY=0.997;entryDx=0;entryDy=0;entryPerimeter=0;" parent="1" source="QZ5ynfMlYQsXyKUYGWSf-11" target="QZ5ynfMlYQsXyKUYGWSf-2" edge="1">
          <mxGeometry relative="1" as="geometry" />
        </mxCell>
        <mxCell id="QZ5ynfMlYQsXyKUYGWSf-11" value="ESP" style="rounded=0;whiteSpace=wrap;html=1;" parent="1" vertex="1">
          <mxGeometry x="140" y="220" width="120" height="60" as="geometry" />
        </mxCell>
      </root>
    </mxGraphModel>
  </diagram>
  <diagram id="cjQtR5YNCO2JBYOJCpv0" name="Schematic">
    <mxGraphModel dx="1050" dy="581" grid="1" gridSize="10" guides="1" tooltips="1" connect="1" arrows="1" fold="1" page="1" pageScale="1" pageWidth="4681" pageHeight="3300" math="0" shadow="0">
      <root>
        <mxCell id="0" />
        <mxCell id="1" parent="0" />
        <mxCell id="WanAeCOxv8JQRtzftkt9-1" style="edgeStyle=orthogonalEdgeStyle;rounded=0;orthogonalLoop=1;jettySize=auto;html=1;entryX=0.5;entryY=1;entryDx=0;entryDy=0;" edge="1" parent="1" source="WanAeCOxv8JQRtzftkt9-5" target="WanAeCOxv8JQRtzftkt9-6">
          <mxGeometry relative="1" as="geometry">
            <Array as="points">
              <mxPoint x="315" y="540" />
              <mxPoint x="315" y="540" />
            </Array>
          </mxGeometry>
        </mxCell>
        <mxCell id="WanAeCOxv8JQRtzftkt9-2" style="edgeStyle=orthogonalEdgeStyle;rounded=0;orthogonalLoop=1;jettySize=auto;html=1;entryX=0.5;entryY=1;entryDx=0;entryDy=0;" edge="1" parent="1" source="WanAeCOxv8JQRtzftkt9-5" target="WanAeCOxv8JQRtzftkt9-8">
          <mxGeometry relative="1" as="geometry" />
        </mxCell>
        <mxCell id="WanAeCOxv8JQRtzftkt9-3" style="edgeStyle=orthogonalEdgeStyle;rounded=0;orthogonalLoop=1;jettySize=auto;html=1;entryX=0.5;entryY=1;entryDx=0;entryDy=0;" edge="1" parent="1" source="WanAeCOxv8JQRtzftkt9-5" target="WanAeCOxv8JQRtzftkt9-7">
          <mxGeometry relative="1" as="geometry">
            <Array as="points">
              <mxPoint x="430" y="550" />
              <mxPoint x="430" y="550" />
            </Array>
          </mxGeometry>
        </mxCell>
        <mxCell id="WanAeCOxv8JQRtzftkt9-4" style="edgeStyle=orthogonalEdgeStyle;rounded=0;orthogonalLoop=1;jettySize=auto;html=1;entryX=0;entryY=0.5;entryDx=0;entryDy=0;" edge="1" parent="1" source="WanAeCOxv8JQRtzftkt9-5" target="WanAeCOxv8JQRtzftkt9-9">
          <mxGeometry relative="1" as="geometry">
            <Array as="points">
              <mxPoint x="480" y="595" />
              <mxPoint x="480" y="595" />
            </Array>
          </mxGeometry>
        </mxCell>
        <mxCell id="WanAeCOxv8JQRtzftkt9-5" value="ESP" style="rounded=0;whiteSpace=wrap;html=1;" vertex="1" parent="1">
          <mxGeometry x="270" y="550" width="200" height="110" as="geometry" />
        </mxCell>
        <mxCell id="WanAeCOxv8JQRtzftkt9-6" value="3" style="ellipse;whiteSpace=wrap;html=1;aspect=fixed;" vertex="1" parent="1">
          <mxGeometry x="300" y="450" width="30" height="30" as="geometry" />
        </mxCell>
        <mxCell id="WanAeCOxv8JQRtzftkt9-7" value="1" style="ellipse;whiteSpace=wrap;html=1;aspect=fixed;" vertex="1" parent="1">
          <mxGeometry x="410" y="450" width="30" height="30" as="geometry" />
        </mxCell>
        <mxCell id="WanAeCOxv8JQRtzftkt9-8" value="2" style="ellipse;whiteSpace=wrap;html=1;aspect=fixed;" vertex="1" parent="1">
          <mxGeometry x="355" y="450" width="30" height="30" as="geometry" />
        </mxCell>
        <mxCell id="WanAeCOxv8JQRtzftkt9-9" value="ON" style="ellipse;whiteSpace=wrap;html=1;aspect=fixed;" vertex="1" parent="1">
          <mxGeometry x="540" y="577.5" width="35" height="35" as="geometry" />
        </mxCell>
        <mxCell id="WanAeCOxv8JQRtzftkt9-10" style="edgeStyle=orthogonalEdgeStyle;rounded=0;orthogonalLoop=1;jettySize=auto;html=1;entryX=0.5;entryY=1;entryDx=0;entryDy=0;" edge="1" parent="1" source="WanAeCOxv8JQRtzftkt9-11" target="WanAeCOxv8JQRtzftkt9-5">
          <mxGeometry relative="1" as="geometry" />
        </mxCell>
        <mxCell id="WanAeCOxv8JQRtzftkt9-11" value="Button" style="shape=cylinder3;whiteSpace=wrap;html=1;boundedLbl=1;backgroundOutline=1;size=15;" vertex="1" parent="1">
          <mxGeometry x="355" y="710" width="35" height="40" as="geometry" />
        </mxCell>
      </root>
    </mxGraphModel>
  </diagram>
  <diagram id="k0cFrdaMco8TxiB8p4Js" name="ESP">
    <mxGraphModel dx="1050" dy="581" grid="1" gridSize="10" guides="1" tooltips="1" connect="1" arrows="1" fold="1" page="1" pageScale="1" pageWidth="4681" pageHeight="3300" math="0" shadow="0">
      <root>
        <mxCell id="0" />
        <mxCell id="1" parent="0" />
        <mxCell id="E8PxyVlrsA50kFqL9sC_-5" style="edgeStyle=orthogonalEdgeStyle;rounded=0;orthogonalLoop=1;jettySize=auto;html=1;entryX=0.5;entryY=0;entryDx=0;entryDy=0;" edge="1" parent="1" source="E8PxyVlrsA50kFqL9sC_-2" target="E8PxyVlrsA50kFqL9sC_-3">
          <mxGeometry relative="1" as="geometry" />
        </mxCell>
        <mxCell id="E8PxyVlrsA50kFqL9sC_-2" value="Start" style="rounded=0;whiteSpace=wrap;html=1;" vertex="1" parent="1">
          <mxGeometry x="420" y="60" width="120" height="60" as="geometry" />
        </mxCell>
        <mxCell id="E8PxyVlrsA50kFqL9sC_-7" style="edgeStyle=orthogonalEdgeStyle;rounded=0;orthogonalLoop=1;jettySize=auto;html=1;entryX=0.5;entryY=0;entryDx=0;entryDy=0;" edge="1" parent="1" source="E8PxyVlrsA50kFqL9sC_-3" target="E8PxyVlrsA50kFqL9sC_-6">
          <mxGeometry relative="1" as="geometry" />
        </mxCell>
        <mxCell id="E8PxyVlrsA50kFqL9sC_-3" value="Sleep mode button" style="rounded=0;whiteSpace=wrap;html=1;" vertex="1" parent="1">
          <mxGeometry x="420" y="240" width="120" height="60" as="geometry" />
        </mxCell>
        <mxCell id="E8PxyVlrsA50kFqL9sC_-22" style="edgeStyle=orthogonalEdgeStyle;rounded=0;orthogonalLoop=1;jettySize=auto;html=1;exitX=1;exitY=0.5;exitDx=0;exitDy=0;entryX=0;entryY=0.5;entryDx=0;entryDy=0;" edge="1" parent="1" source="E8PxyVlrsA50kFqL9sC_-4" target="E8PxyVlrsA50kFqL9sC_-13">
          <mxGeometry relative="1" as="geometry" />
        </mxCell>
        <mxCell id="E8PxyVlrsA50kFqL9sC_-4" value="Sleep mode timer" style="rounded=0;whiteSpace=wrap;html=1;" vertex="1" parent="1">
          <mxGeometry x="760" y="410" width="120" height="60" as="geometry" />
        </mxCell>
        <mxCell id="E8PxyVlrsA50kFqL9sC_-9" style="edgeStyle=orthogonalEdgeStyle;rounded=0;orthogonalLoop=1;jettySize=auto;html=1;entryX=0.5;entryY=0;entryDx=0;entryDy=0;" edge="1" parent="1" source="E8PxyVlrsA50kFqL9sC_-6" target="E8PxyVlrsA50kFqL9sC_-8">
          <mxGeometry relative="1" as="geometry" />
        </mxCell>
        <mxCell id="E8PxyVlrsA50kFqL9sC_-6" value="Sleep and wait enter" style="ellipse;whiteSpace=wrap;html=1;" vertex="1" parent="1">
          <mxGeometry x="440" y="330" width="80" height="50" as="geometry" />
        </mxCell>
        <mxCell id="E8PxyVlrsA50kFqL9sC_-11" style="edgeStyle=orthogonalEdgeStyle;rounded=0;orthogonalLoop=1;jettySize=auto;html=1;entryX=0;entryY=0.5;entryDx=0;entryDy=0;" edge="1" parent="1" source="E8PxyVlrsA50kFqL9sC_-8" target="E8PxyVlrsA50kFqL9sC_-10">
          <mxGeometry relative="1" as="geometry" />
        </mxCell>
        <mxCell id="E8PxyVlrsA50kFqL9sC_-15" style="edgeStyle=orthogonalEdgeStyle;rounded=0;orthogonalLoop=1;jettySize=auto;html=1;" edge="1" parent="1" source="E8PxyVlrsA50kFqL9sC_-8" target="E8PxyVlrsA50kFqL9sC_-10">
          <mxGeometry relative="1" as="geometry" />
        </mxCell>
        <mxCell id="E8PxyVlrsA50kFqL9sC_-8" value="Enter button" style="rounded=0;whiteSpace=wrap;html=1;" vertex="1" parent="1">
          <mxGeometry x="420" y="410" width="120" height="60" as="geometry" />
        </mxCell>
        <mxCell id="E8PxyVlrsA50kFqL9sC_-21" style="edgeStyle=orthogonalEdgeStyle;rounded=0;orthogonalLoop=1;jettySize=auto;html=1;entryX=0;entryY=0.5;entryDx=0;entryDy=0;" edge="1" parent="1" source="E8PxyVlrsA50kFqL9sC_-10" target="E8PxyVlrsA50kFqL9sC_-4">
          <mxGeometry relative="1" as="geometry" />
        </mxCell>
        <mxCell id="E8PxyVlrsA50kFqL9sC_-10" value="Wake up" style="rounded=0;whiteSpace=wrap;html=1;" vertex="1" parent="1">
          <mxGeometry x="590" y="410" width="120" height="60" as="geometry" />
        </mxCell>
        <mxCell id="E8PxyVlrsA50kFqL9sC_-24" value="" style="edgeStyle=orthogonalEdgeStyle;rounded=0;orthogonalLoop=1;jettySize=auto;html=1;" edge="1" parent="1" source="E8PxyVlrsA50kFqL9sC_-13" target="E8PxyVlrsA50kFqL9sC_-14">
          <mxGeometry relative="1" as="geometry" />
        </mxCell>
        <mxCell id="E8PxyVlrsA50kFqL9sC_-13" value="Sleep and wait 14s" style="ellipse;whiteSpace=wrap;html=1;" vertex="1" parent="1">
          <mxGeometry x="980" y="415" width="80" height="50" as="geometry" />
        </mxCell>
        <mxCell id="E8PxyVlrsA50kFqL9sC_-30" value="" style="edgeStyle=orthogonalEdgeStyle;rounded=0;orthogonalLoop=1;jettySize=auto;html=1;" edge="1" parent="1" source="E8PxyVlrsA50kFqL9sC_-14" target="E8PxyVlrsA50kFqL9sC_-29">
          <mxGeometry relative="1" as="geometry" />
        </mxCell>
        <mxCell id="E8PxyVlrsA50kFqL9sC_-14" value="Wake up" style="rounded=0;whiteSpace=wrap;html=1;" vertex="1" parent="1">
          <mxGeometry x="960" y="320" width="120" height="60" as="geometry" />
        </mxCell>
        <mxCell id="E8PxyVlrsA50kFqL9sC_-33" value="" style="edgeStyle=orthogonalEdgeStyle;rounded=0;orthogonalLoop=1;jettySize=auto;html=1;" edge="1" parent="1" source="E8PxyVlrsA50kFqL9sC_-26" target="E8PxyVlrsA50kFqL9sC_-32">
          <mxGeometry relative="1" as="geometry" />
        </mxCell>
        <mxCell id="E8PxyVlrsA50kFqL9sC_-26" value="Smartconfig" style="rounded=0;whiteSpace=wrap;html=1;" vertex="1" parent="1">
          <mxGeometry x="960" y="60" width="120" height="60" as="geometry" />
        </mxCell>
        <mxCell id="E8PxyVlrsA50kFqL9sC_-31" value="Need" style="edgeStyle=orthogonalEdgeStyle;rounded=0;orthogonalLoop=1;jettySize=auto;html=1;" edge="1" parent="1" source="E8PxyVlrsA50kFqL9sC_-29" target="E8PxyVlrsA50kFqL9sC_-26">
          <mxGeometry relative="1" as="geometry" />
        </mxCell>
        <mxCell id="E8PxyVlrsA50kFqL9sC_-34" value="Not need" style="edgeStyle=orthogonalEdgeStyle;rounded=0;orthogonalLoop=1;jettySize=auto;html=1;" edge="1" parent="1" source="E8PxyVlrsA50kFqL9sC_-29">
          <mxGeometry relative="1" as="geometry">
            <mxPoint x="930" y="90" as="targetPoint" />
          </mxGeometry>
        </mxCell>
        <mxCell id="E8PxyVlrsA50kFqL9sC_-29" value="Check need&lt;br&gt;smart config" style="rhombus;whiteSpace=wrap;html=1;" vertex="1" parent="1">
          <mxGeometry x="960" y="190" width="120" height="80" as="geometry" />
        </mxCell>
        <mxCell id="E8PxyVlrsA50kFqL9sC_-36" value="" style="edgeStyle=orthogonalEdgeStyle;rounded=0;orthogonalLoop=1;jettySize=auto;html=1;" edge="1" parent="1" source="E8PxyVlrsA50kFqL9sC_-32" target="E8PxyVlrsA50kFqL9sC_-35">
          <mxGeometry relative="1" as="geometry" />
        </mxCell>
        <mxCell id="E8PxyVlrsA50kFqL9sC_-32" value="Measure" style="rounded=0;whiteSpace=wrap;html=1;" vertex="1" parent="1">
          <mxGeometry x="760" y="60" width="120" height="60" as="geometry" />
        </mxCell>
        <mxCell id="E8PxyVlrsA50kFqL9sC_-38" value="" style="edgeStyle=orthogonalEdgeStyle;rounded=0;orthogonalLoop=1;jettySize=auto;html=1;" edge="1" parent="1" source="E8PxyVlrsA50kFqL9sC_-35" target="E8PxyVlrsA50kFqL9sC_-37">
          <mxGeometry relative="1" as="geometry" />
        </mxCell>
        <mxCell id="E8PxyVlrsA50kFqL9sC_-35" value="POST measure to server" style="rounded=0;whiteSpace=wrap;html=1;" vertex="1" parent="1">
          <mxGeometry x="760" y="195" width="120" height="60" as="geometry" />
        </mxCell>
        <mxCell id="E8PxyVlrsA50kFqL9sC_-40" value="" style="edgeStyle=orthogonalEdgeStyle;rounded=0;orthogonalLoop=1;jettySize=auto;html=1;" edge="1" parent="1" source="E8PxyVlrsA50kFqL9sC_-37" target="E8PxyVlrsA50kFqL9sC_-39">
          <mxGeometry relative="1" as="geometry" />
        </mxCell>
        <mxCell id="E8PxyVlrsA50kFqL9sC_-37" value="UPDATE setpoint and check" style="rounded=0;whiteSpace=wrap;html=1;" vertex="1" parent="1">
          <mxGeometry x="760" y="320" width="120" height="60" as="geometry" />
        </mxCell>
        <mxCell id="FXut7fJmau5N69epo5gq-1" style="edgeStyle=orthogonalEdgeStyle;rounded=0;orthogonalLoop=1;jettySize=auto;html=1;entryX=1;entryY=0.5;entryDx=0;entryDy=0;" edge="1" parent="1" source="E8PxyVlrsA50kFqL9sC_-39" target="E8PxyVlrsA50kFqL9sC_-3">
          <mxGeometry relative="1" as="geometry">
            <Array as="points">
              <mxPoint x="640" y="270" />
            </Array>
          </mxGeometry>
        </mxCell>
        <mxCell id="E8PxyVlrsA50kFqL9sC_-39" value="Alarm, led" style="rounded=0;whiteSpace=wrap;html=1;" vertex="1" parent="1">
          <mxGeometry x="590" y="320" width="120" height="60" as="geometry" />
        </mxCell>
      </root>
    </mxGraphModel>
  </diagram>
  <diagram id="Sp3SKM4nvRcKV-FGY2xr" name="Server">
    <mxGraphModel dx="1031" dy="581" grid="1" gridSize="10" guides="1" tooltips="1" connect="1" arrows="1" fold="1" page="1" pageScale="1" pageWidth="4681" pageHeight="3300" math="0" shadow="0">
      <root>
        <mxCell id="0" />
        <mxCell id="1" parent="0" />
        <mxCell id="kVqAlKhhN5eJiLKBb5Fw-6" style="edgeStyle=orthogonalEdgeStyle;rounded=0;orthogonalLoop=1;jettySize=auto;html=1;exitX=1;exitY=0.5;exitDx=0;exitDy=0;entryX=0.5;entryY=0;entryDx=0;entryDy=0;" parent="1" target="kVqAlKhhN5eJiLKBb5Fw-3" edge="1">
          <mxGeometry relative="1" as="geometry">
            <mxPoint x="610" y="150" as="sourcePoint" />
          </mxGeometry>
        </mxCell>
        <mxCell id="cUFqzIvpJTK2mYLPF9I6-11" style="edgeStyle=orthogonalEdgeStyle;rounded=0;orthogonalLoop=1;jettySize=auto;html=1;entryX=0.5;entryY=0;entryDx=0;entryDy=0;strokeColor=#000000;strokeWidth=1;fontSize=21;fontColor=#000000;" edge="1" parent="1" source="kVqAlKhhN5eJiLKBb5Fw-2" target="kVqAlKhhN5eJiLKBb5Fw-52">
          <mxGeometry relative="1" as="geometry" />
        </mxCell>
        <mxCell id="kVqAlKhhN5eJiLKBb5Fw-2" value="nút bấm&amp;nbsp;" style="rounded=0;whiteSpace=wrap;html=1;" parent="1" vertex="1">
          <mxGeometry x="330" y="230" width="150" height="60" as="geometry" />
        </mxCell>
        <mxCell id="cUFqzIvpJTK2mYLPF9I6-14" value="" style="edgeStyle=orthogonalEdgeStyle;rounded=0;orthogonalLoop=1;jettySize=auto;html=1;strokeColor=#000000;strokeWidth=1;fontSize=21;fontColor=#000000;" edge="1" parent="1" source="kVqAlKhhN5eJiLKBb5Fw-3" target="cUFqzIvpJTK2mYLPF9I6-13">
          <mxGeometry relative="1" as="geometry" />
        </mxCell>
        <mxCell id="kVqAlKhhN5eJiLKBb5Fw-3" value="gửi yêu cầu config" style="rounded=0;whiteSpace=wrap;html=1;" parent="1" vertex="1">
          <mxGeometry x="660" y="240" width="150" height="60" as="geometry" />
        </mxCell>
        <mxCell id="kVqAlKhhN5eJiLKBb5Fw-22" value="End" style="ellipse;whiteSpace=wrap;html=1;" parent="1" vertex="1">
          <mxGeometry x="370" y="680" width="70" height="40" as="geometry" />
        </mxCell>
        <mxCell id="cUFqzIvpJTK2mYLPF9I6-21" value="" style="edgeStyle=orthogonalEdgeStyle;rounded=0;orthogonalLoop=1;jettySize=auto;html=1;strokeColor=#000000;strokeWidth=1;fontSize=21;fontColor=#000000;" edge="1" parent="1" source="kVqAlKhhN5eJiLKBb5Fw-52" target="cUFqzIvpJTK2mYLPF9I6-18">
          <mxGeometry relative="1" as="geometry" />
        </mxCell>
        <mxCell id="kVqAlKhhN5eJiLKBb5Fw-52" value="lấy giá trị cảm biến, nhiệt độ cảm biến ổn định trong 14s (MCU đang ngủ)" style="rounded=0;whiteSpace=wrap;html=1;" parent="1" vertex="1">
          <mxGeometry x="330" y="330" width="150" height="60" as="geometry" />
        </mxCell>
        <mxCell id="cUFqzIvpJTK2mYLPF9I6-9" value="" style="edgeStyle=orthogonalEdgeStyle;rounded=0;orthogonalLoop=1;jettySize=auto;html=1;strokeColor=#000000;strokeWidth=1;fontSize=21;fontColor=#000000;" edge="1" parent="1" source="kVqAlKhhN5eJiLKBb5Fw-57" target="cUFqzIvpJTK2mYLPF9I6-8">
          <mxGeometry relative="1" as="geometry" />
        </mxCell>
        <mxCell id="kVqAlKhhN5eJiLKBb5Fw-57" value="lưu dữ liệu lên server, báo ngưỡng&amp;nbsp;" style="rounded=0;whiteSpace=wrap;html=1;" parent="1" vertex="1">
          <mxGeometry x="330" y="500" width="150" height="50" as="geometry" />
        </mxCell>
        <mxCell id="cUFqzIvpJTK2mYLPF9I6-1" value="bắt đầu&amp;nbsp;" style="ellipse;whiteSpace=wrap;html=1;fontSize=21;fontColor=#000000;" vertex="1" parent="1">
          <mxGeometry x="490" y="110" width="120" height="80" as="geometry" />
        </mxCell>
        <mxCell id="cUFqzIvpJTK2mYLPF9I6-3" style="edgeStyle=orthogonalEdgeStyle;rounded=0;orthogonalLoop=1;jettySize=auto;html=1;exitX=0;exitY=0.5;exitDx=0;exitDy=0;entryX=0.5;entryY=0;entryDx=0;entryDy=0;" edge="1" parent="1" source="cUFqzIvpJTK2mYLPF9I6-1" target="kVqAlKhhN5eJiLKBb5Fw-2">
          <mxGeometry relative="1" as="geometry">
            <mxPoint x="320" y="120" as="sourcePoint" />
            <mxPoint x="445" y="220" as="targetPoint" />
            <Array as="points">
              <mxPoint x="405" y="150" />
            </Array>
          </mxGeometry>
        </mxCell>
        <mxCell id="cUFqzIvpJTK2mYLPF9I6-12" value="" style="edgeStyle=orthogonalEdgeStyle;rounded=0;orthogonalLoop=1;jettySize=auto;html=1;strokeColor=#000000;strokeWidth=1;fontSize=21;fontColor=#000000;" edge="1" parent="1" source="cUFqzIvpJTK2mYLPF9I6-8" target="kVqAlKhhN5eJiLKBb5Fw-22">
          <mxGeometry relative="1" as="geometry" />
        </mxCell>
        <mxCell id="cUFqzIvpJTK2mYLPF9I6-8" value="giám sát giá trị nhiệt độ bằng thingspeak&amp;nbsp;" style="rounded=0;whiteSpace=wrap;html=1;" vertex="1" parent="1">
          <mxGeometry x="345" y="590" width="120" height="60" as="geometry" />
        </mxCell>
        <mxCell id="cUFqzIvpJTK2mYLPF9I6-13" value="xác nhận địa chỉ IP server&amp;nbsp;" style="whiteSpace=wrap;html=1;rounded=0;" vertex="1" parent="1">
          <mxGeometry x="660" y="320" width="150" height="60" as="geometry" />
        </mxCell>
        <mxCell id="cUFqzIvpJTK2mYLPF9I6-19" value="" style="edgeStyle=orthogonalEdgeStyle;rounded=0;orthogonalLoop=1;jettySize=auto;html=1;strokeColor=#000000;strokeWidth=1;fontSize=21;fontColor=#000000;" edge="1" parent="1" source="cUFqzIvpJTK2mYLPF9I6-18" target="kVqAlKhhN5eJiLKBb5Fw-57">
          <mxGeometry relative="1" as="geometry" />
        </mxCell>
        <mxCell id="cUFqzIvpJTK2mYLPF9I6-18" value="sau 14s, MCU active, gửi dữ liệu, báo ngưỡng" style="rounded=0;whiteSpace=wrap;html=1;" vertex="1" parent="1">
          <mxGeometry x="330" y="410" width="150" height="60" as="geometry" />
        </mxCell>
      </root>
    </mxGraphModel>
  </diagram>
  <diagram id="gz0ATo-BQE6JOpmiFWDp" name="Page-5">
    <mxGraphModel dx="1235" dy="684" grid="1" gridSize="10" guides="1" tooltips="1" connect="1" arrows="1" fold="1" page="1" pageScale="1" pageWidth="3300" pageHeight="4681" math="0" shadow="0">
      <root>
        <mxCell id="0" />
        <mxCell id="1" parent="0" />
        <mxCell id="fh64cuo8HLMkIdc7Rt8i-1" value="" style="points=[];aspect=fixed;html=1;align=center;shadow=0;dashed=0;image;image=img/lib/allied_telesis/computer_and_terminals/Personal_Computer_with_Server.svg;" vertex="1" parent="1">
          <mxGeometry x="490" y="426.3" width="142.4" height="142.4" as="geometry" />
        </mxCell>
        <mxCell id="fh64cuo8HLMkIdc7Rt8i-3" value="" style="image;html=1;image=img/lib/clip_art/networking/Wireless_Router_128x128.png" vertex="1" parent="1">
          <mxGeometry x="470" y="170" width="80" height="80" as="geometry" />
        </mxCell>
        <mxCell id="fh64cuo8HLMkIdc7Rt8i-8" value="" style="endArrow=classic;startArrow=classic;html=1;rounded=0;exitX=1.007;exitY=0.15;exitDx=0;exitDy=0;exitPerimeter=0;entryX=0;entryY=0.75;entryDx=0;entryDy=0;strokeWidth=3;dashed=1;strokeColor=#82b366;fillColor=#d5e8d4;" edge="1" parent="1" source="fh64cuo8HLMkIdc7Rt8i-7" target="fh64cuo8HLMkIdc7Rt8i-3">
          <mxGeometry width="50" height="50" relative="1" as="geometry">
            <mxPoint x="370" y="290" as="sourcePoint" />
            <mxPoint x="420" y="240" as="targetPoint" />
          </mxGeometry>
        </mxCell>
        <mxCell id="fh64cuo8HLMkIdc7Rt8i-26" value="Wi-Fi" style="edgeLabel;html=1;align=center;verticalAlign=middle;resizable=0;points=[];fontSize=22;fontColor=#97D077;" vertex="1" connectable="0" parent="fh64cuo8HLMkIdc7Rt8i-8">
          <mxGeometry x="-0.161" y="-6" relative="1" as="geometry">
            <mxPoint x="-1" as="offset" />
          </mxGeometry>
        </mxCell>
        <mxCell id="fh64cuo8HLMkIdc7Rt8i-17" value="" style="endArrow=classic;startArrow=classic;html=1;rounded=0;exitX=1;exitY=0.25;exitDx=0;exitDy=0;entryX=0.25;entryY=1;entryDx=0;entryDy=0;strokeWidth=3;dashed=1;strokeColor=#82b366;fillColor=#d5e8d4;" edge="1" parent="1" source="fh64cuo8HLMkIdc7Rt8i-14" target="fh64cuo8HLMkIdc7Rt8i-3">
          <mxGeometry width="50" height="50" relative="1" as="geometry">
            <mxPoint x="290" y="372" as="sourcePoint" />
            <mxPoint x="520" y="303" as="targetPoint" />
          </mxGeometry>
        </mxCell>
        <mxCell id="fh64cuo8HLMkIdc7Rt8i-27" value="Wi-Fi" style="edgeLabel;html=1;align=center;verticalAlign=middle;resizable=0;points=[];fontSize=22;fontColor=#97D077;" vertex="1" connectable="0" parent="fh64cuo8HLMkIdc7Rt8i-17">
          <mxGeometry x="-0.1234" relative="1" as="geometry">
            <mxPoint as="offset" />
          </mxGeometry>
        </mxCell>
        <mxCell id="fh64cuo8HLMkIdc7Rt8i-18" value="" style="endArrow=classic;startArrow=classic;html=1;rounded=0;entryX=0.5;entryY=1;entryDx=0;entryDy=0;strokeWidth=3;dashed=1;strokeColor=#82b366;fillColor=#d5e8d4;" edge="1" parent="1" source="fh64cuo8HLMkIdc7Rt8i-1" target="fh64cuo8HLMkIdc7Rt8i-3">
          <mxGeometry width="50" height="50" relative="1" as="geometry">
            <mxPoint x="310" y="568.7" as="sourcePoint" />
            <mxPoint x="470" y="353.7" as="targetPoint" />
          </mxGeometry>
        </mxCell>
        <mxCell id="fh64cuo8HLMkIdc7Rt8i-28" value="Wi-Fi" style="edgeLabel;html=1;align=center;verticalAlign=middle;resizable=0;points=[];fontSize=22;fontColor=#97D077;" vertex="1" connectable="0" parent="fh64cuo8HLMkIdc7Rt8i-18">
          <mxGeometry x="-0.2572" y="-2" relative="1" as="geometry">
            <mxPoint as="offset" />
          </mxGeometry>
        </mxCell>
        <mxCell id="fh64cuo8HLMkIdc7Rt8i-22" value="" style="endArrow=classic;startArrow=classic;html=1;rounded=0;exitX=0;exitY=0.25;exitDx=0;exitDy=0;strokeWidth=3;dashed=1;strokeColor=#82b366;fillColor=#d5e8d4;entryX=0.75;entryY=1;entryDx=0;entryDy=0;" edge="1" parent="1" source="fh64cuo8HLMkIdc7Rt8i-23" target="fh64cuo8HLMkIdc7Rt8i-3">
          <mxGeometry width="50" height="50" relative="1" as="geometry">
            <mxPoint x="-10" y="30" as="sourcePoint" />
            <mxPoint x="90" y="-30" as="targetPoint" />
          </mxGeometry>
        </mxCell>
        <mxCell id="fh64cuo8HLMkIdc7Rt8i-29" value="Wi-Fi" style="edgeLabel;html=1;align=center;verticalAlign=middle;resizable=0;points=[];fontSize=22;fontColor=#97D077;" vertex="1" connectable="0" parent="fh64cuo8HLMkIdc7Rt8i-22">
          <mxGeometry x="0.1809" y="4" relative="1" as="geometry">
            <mxPoint as="offset" />
          </mxGeometry>
        </mxCell>
        <mxCell id="fh64cuo8HLMkIdc7Rt8i-35" value="" style="endArrow=classic;startArrow=classic;html=1;rounded=0;exitX=0;exitY=0.5;exitDx=0;exitDy=0;strokeWidth=3;dashed=1;strokeColor=#82b366;fillColor=#d5e8d4;entryX=1;entryY=0.75;entryDx=0;entryDy=0;" edge="1" parent="1" source="fh64cuo8HLMkIdc7Rt8i-33" target="fh64cuo8HLMkIdc7Rt8i-3">
          <mxGeometry width="50" height="50" relative="1" as="geometry">
            <mxPoint x="830" y="280" as="sourcePoint" />
            <mxPoint x="560" y="195" as="targetPoint" />
          </mxGeometry>
        </mxCell>
        <mxCell id="fh64cuo8HLMkIdc7Rt8i-36" value="Wi-Fi" style="edgeLabel;html=1;align=center;verticalAlign=middle;resizable=0;points=[];fontSize=22;fontColor=#97D077;" vertex="1" connectable="0" parent="fh64cuo8HLMkIdc7Rt8i-35">
          <mxGeometry x="0.1809" y="4" relative="1" as="geometry">
            <mxPoint as="offset" />
          </mxGeometry>
        </mxCell>
        <mxCell id="fh64cuo8HLMkIdc7Rt8i-7" value="" style="shape=image;html=1;verticalAlign=top;verticalLabelPosition=bottom;labelBackgroundColor=#ffffff;imageAspect=0;aspect=fixed;image=https://cdn4.iconfinder.com/data/icons/vecico-connectivity/288/radio-128.png" vertex="1" parent="1">
          <mxGeometry x="180" y="280" width="60" height="60" as="geometry" />
        </mxCell>
        <mxCell id="fh64cuo8HLMkIdc7Rt8i-14" value="" style="shape=image;html=1;verticalAlign=top;verticalLabelPosition=bottom;labelBackgroundColor=#ffffff;imageAspect=0;aspect=fixed;image=https://cdn4.iconfinder.com/data/icons/vecico-connectivity/288/radio-128.png" vertex="1" parent="1">
          <mxGeometry x="270" y="450" width="60" height="60" as="geometry" />
        </mxCell>
        <mxCell id="fh64cuo8HLMkIdc7Rt8i-15" value="" style="verticalLabelPosition=bottom;sketch=0;html=1;fillColor=#A153A0;strokeColor=#ffffff;verticalAlign=top;align=center;points=[[0,0.5,0],[0.125,0.25,0],[0.25,0,0],[0.5,0,0],[0.75,0,0],[0.875,0.25,0],[1,0.5,0],[0.875,0.75,0],[0.75,1,0],[0.5,1,0],[0.125,0.75,0]];pointerEvents=1;shape=mxgraph.cisco_safe.compositeIcon;bgIcon=mxgraph.cisco_safe.design.blank_device;resIcon=mxgraph.cisco_safe.design.sensor;" vertex="1" parent="1">
          <mxGeometry x="275" y="500" width="50" height="45" as="geometry" />
        </mxCell>
        <mxCell id="fh64cuo8HLMkIdc7Rt8i-9" value="" style="verticalLabelPosition=bottom;sketch=0;html=1;fillColor=#A153A0;strokeColor=#ffffff;verticalAlign=top;align=center;points=[[0,0.5,0],[0.125,0.25,0],[0.25,0,0],[0.5,0,0],[0.75,0,0],[0.875,0.25,0],[1,0.5,0],[0.875,0.75,0],[0.75,1,0],[0.5,1,0],[0.125,0.75,0]];pointerEvents=1;shape=mxgraph.cisco_safe.compositeIcon;bgIcon=mxgraph.cisco_safe.design.blank_device;resIcon=mxgraph.cisco_safe.design.sensor;" vertex="1" parent="1">
          <mxGeometry x="185" y="330" width="50" height="45" as="geometry" />
        </mxCell>
        <mxCell id="fh64cuo8HLMkIdc7Rt8i-23" value="" style="shape=image;html=1;verticalAlign=top;verticalLabelPosition=bottom;labelBackgroundColor=#ffffff;imageAspect=0;aspect=fixed;image=https://cdn4.iconfinder.com/data/icons/vecico-connectivity/288/radio-128.png" vertex="1" parent="1">
          <mxGeometry x="730" y="400" width="60" height="60" as="geometry" />
        </mxCell>
        <mxCell id="fh64cuo8HLMkIdc7Rt8i-24" value="" style="verticalLabelPosition=bottom;sketch=0;html=1;fillColor=#A153A0;strokeColor=#ffffff;verticalAlign=top;align=center;points=[[0,0.5,0],[0.125,0.25,0],[0.25,0,0],[0.5,0,0],[0.75,0,0],[0.875,0.25,0],[1,0.5,0],[0.875,0.75,0],[0.75,1,0],[0.5,1,0],[0.125,0.75,0]];pointerEvents=1;shape=mxgraph.cisco_safe.compositeIcon;bgIcon=mxgraph.cisco_safe.design.blank_device;resIcon=mxgraph.cisco_safe.design.sensor;" vertex="1" parent="1">
          <mxGeometry x="735" y="450" width="50" height="45" as="geometry" />
        </mxCell>
        <mxCell id="fh64cuo8HLMkIdc7Rt8i-33" value="" style="shape=image;html=1;verticalAlign=top;verticalLabelPosition=bottom;labelBackgroundColor=#ffffff;imageAspect=0;aspect=fixed;image=https://cdn4.iconfinder.com/data/icons/vecico-connectivity/288/radio-128.png" vertex="1" parent="1">
          <mxGeometry x="810" y="305" width="60" height="60" as="geometry" />
        </mxCell>
        <mxCell id="fh64cuo8HLMkIdc7Rt8i-34" value="" style="verticalLabelPosition=bottom;sketch=0;html=1;fillColor=#A153A0;strokeColor=#ffffff;verticalAlign=top;align=center;points=[[0,0.5,0],[0.125,0.25,0],[0.25,0,0],[0.5,0,0],[0.75,0,0],[0.875,0.25,0],[1,0.5,0],[0.875,0.75,0],[0.75,1,0],[0.5,1,0],[0.125,0.75,0]];pointerEvents=1;shape=mxgraph.cisco_safe.compositeIcon;bgIcon=mxgraph.cisco_safe.design.blank_device;resIcon=mxgraph.cisco_safe.design.sensor;" vertex="1" parent="1">
          <mxGeometry x="815" y="355" width="50" height="45" as="geometry" />
        </mxCell>
        <mxCell id="2wny8hc-ap7-2RmzJTV7-1" value="&lt;font style=&quot;font-size: 16px;&quot;&gt;SENSOR NODE&amp;nbsp;&lt;/font&gt;" style="text;html=1;align=center;verticalAlign=middle;resizable=0;points=[];autosize=1;strokeColor=none;fillColor=none;fontSize=22;fontColor=#000000;" vertex="1" parent="1">
          <mxGeometry x="150" y="386.3" width="150" height="40" as="geometry" />
        </mxCell>
        <mxCell id="2wny8hc-ap7-2RmzJTV7-2" value="&lt;font style=&quot;font-size: 16px;&quot;&gt;SENSOR NODE&amp;nbsp;&lt;/font&gt;" style="text;html=1;align=center;verticalAlign=middle;resizable=0;points=[];autosize=1;strokeColor=none;fillColor=none;fontSize=22;fontColor=#000000;" vertex="1" parent="1">
          <mxGeometry x="235" y="545" width="150" height="40" as="geometry" />
        </mxCell>
        <mxCell id="2wny8hc-ap7-2RmzJTV7-3" value="&lt;font style=&quot;font-size: 16px;&quot;&gt;SENSOR NODE&amp;nbsp;&lt;/font&gt;" style="text;html=1;align=center;verticalAlign=middle;resizable=0;points=[];autosize=1;strokeColor=none;fillColor=none;fontSize=22;fontColor=#000000;" vertex="1" parent="1">
          <mxGeometry x="715" y="500" width="150" height="40" as="geometry" />
        </mxCell>
        <mxCell id="2wny8hc-ap7-2RmzJTV7-4" value="&lt;font style=&quot;font-size: 16px;&quot;&gt;SENSOR NODE&amp;nbsp;&lt;/font&gt;" style="text;html=1;align=center;verticalAlign=middle;resizable=0;points=[];autosize=1;strokeColor=none;fillColor=none;fontSize=22;fontColor=#000000;" vertex="1" parent="1">
          <mxGeometry x="830" y="400" width="150" height="40" as="geometry" />
        </mxCell>
        <mxCell id="2wny8hc-ap7-2RmzJTV7-5" value="LOCAL SERVER" style="text;html=1;align=center;verticalAlign=middle;resizable=0;points=[];autosize=1;strokeColor=none;fillColor=none;fontSize=16;fontColor=#000000;" vertex="1" parent="1">
          <mxGeometry x="490" y="570" width="150" height="30" as="geometry" />
        </mxCell>
      </root>
    </mxGraphModel>
  </diagram>
  <diagram id="fMTIFfvj2ibR51XMYN0i" name="Page-6">
    <mxGraphModel dx="724" dy="401" grid="1" gridSize="10" guides="1" tooltips="1" connect="1" arrows="1" fold="1" page="1" pageScale="1" pageWidth="3300" pageHeight="4681" math="0" shadow="0">
      <root>
        <mxCell id="0" />
        <mxCell id="1" parent="0" />
        <mxCell id="FwfnLXmX5ZXRu-7Y34uU-9" value="&lt;font style=&quot;font-size: 21px;&quot;&gt;HTTP&lt;/font&gt;" style="rounded=0;whiteSpace=wrap;html=1;fontSize=16;fillColor=#dae8fc;strokeColor=#6c8ebf;" vertex="1" parent="1">
          <mxGeometry x="580" y="170" width="170" height="60" as="geometry" />
        </mxCell>
        <mxCell id="FwfnLXmX5ZXRu-7Y34uU-11" value="&lt;font style=&quot;font-size: 21px;&quot;&gt;TCP&lt;/font&gt;" style="rounded=0;whiteSpace=wrap;html=1;fontSize=16;fillColor=#ffe6cc;strokeColor=#d79b00;" vertex="1" parent="1">
          <mxGeometry x="580" y="230" width="170" height="60" as="geometry" />
        </mxCell>
        <mxCell id="FwfnLXmX5ZXRu-7Y34uU-12" value="&lt;font style=&quot;font-size: 21px;&quot;&gt;IP&lt;/font&gt;" style="rounded=0;whiteSpace=wrap;html=1;fontSize=16;fillColor=#fff2cc;strokeColor=#d6b656;" vertex="1" parent="1">
          <mxGeometry x="580" y="290" width="170" height="60" as="geometry" />
        </mxCell>
        <mxCell id="FwfnLXmX5ZXRu-7Y34uU-13" value="&lt;span style=&quot;font-size: 21px;&quot;&gt;Wi-Fi&lt;/span&gt;" style="rounded=0;whiteSpace=wrap;html=1;fontSize=16;fillColor=#d5e8d4;strokeColor=#82b366;" vertex="1" parent="1">
          <mxGeometry x="580" y="350" width="170" height="110" as="geometry" />
        </mxCell>
        <mxCell id="FwfnLXmX5ZXRu-7Y34uU-14" value="Application Layer" style="text;html=1;align=center;verticalAlign=middle;resizable=0;points=[];autosize=1;strokeColor=none;fillColor=none;fontSize=21;fontColor=#000000;" vertex="1" parent="1">
          <mxGeometry x="750" y="180" width="180" height="40" as="geometry" />
        </mxCell>
        <mxCell id="FwfnLXmX5ZXRu-7Y34uU-15" value="Transport Layer" style="text;html=1;align=center;verticalAlign=middle;resizable=0;points=[];autosize=1;strokeColor=none;fillColor=none;fontSize=21;fontColor=#000000;" vertex="1" parent="1">
          <mxGeometry x="750" y="230" width="170" height="40" as="geometry" />
        </mxCell>
        <mxCell id="FwfnLXmX5ZXRu-7Y34uU-16" value="Network Layer" style="text;html=1;align=center;verticalAlign=middle;resizable=0;points=[];autosize=1;strokeColor=none;fillColor=none;fontSize=21;fontColor=#000000;" vertex="1" parent="1">
          <mxGeometry x="750" y="300" width="160" height="40" as="geometry" />
        </mxCell>
        <mxCell id="FwfnLXmX5ZXRu-7Y34uU-17" value="Data Link Layer" style="text;html=1;align=center;verticalAlign=middle;resizable=0;points=[];autosize=1;strokeColor=none;fillColor=none;fontSize=21;fontColor=#000000;" vertex="1" parent="1">
          <mxGeometry x="745" y="360" width="170" height="40" as="geometry" />
        </mxCell>
        <mxCell id="FwfnLXmX5ZXRu-7Y34uU-18" value="Physical Layer" style="text;html=1;align=center;verticalAlign=middle;resizable=0;points=[];autosize=1;strokeColor=none;fillColor=none;fontSize=21;fontColor=#000000;" vertex="1" parent="1">
          <mxGeometry x="745" y="410" width="160" height="40" as="geometry" />
        </mxCell>
      </root>
    </mxGraphModel>
  </diagram>
  <diagram id="Qfw-9594mQLGLOsysDz0" name="Page-7">
    <mxGraphModel dx="1031" dy="581" grid="1" gridSize="10" guides="1" tooltips="1" connect="1" arrows="1" fold="1" page="1" pageScale="1" pageWidth="3300" pageHeight="4681" math="0" shadow="0">
      <root>
        <mxCell id="0" />
        <mxCell id="1" parent="0" />
      </root>
    </mxGraphModel>
  </diagram>
</mxfile>
